Coordinates
version=1
nRows=26
nColumns=22
inDegrees=yes

Units are S.I. units (second, meters, Newtons, ...)
If the header above contains a line with 'inDegrees', this indicates whether rotational values are in degrees (yes) or radians (no).

endheader
time	pelvis_tilt	pelvis_list	pelvis_rotation	pelvis_tx	pelvis_ty	pelvis_tz	hip_flexion_r	hip_adduction_r	hip_rotation_r	knee_angle_r	ankle_angle_r	subtalar_angle_r	hip_flexion_l	hip_adduction_l	hip_rotation_l	knee_angle_l	ankle_angle_l	subtalar_angle_l	lumbar_extension	lumbar_bending	lumbar_rotation
      1.41000000	      1.94425457	     -2.73806535	     -5.69390646	     -1.19096782	      0.93608385	      0.77164621	     -4.93595477	     -1.66697361	     -0.61263034	     -8.23803513	      3.35603877	      9.73697936	     -5.92637796	     -7.38957130	     -6.77812171	     -6.49503029	      7.90575182	      3.48111250	     -5.32453829	     -0.37308064	      0.56385094
      1.42000000	      1.83547102	     -2.69003672	     -5.74109073	     -1.19119883	      0.93585305	      0.77172009	     -4.47410870	     -1.70910670	     -0.60473419	     -8.86682277	      3.62150719	      9.68919140	     -5.74137324	     -7.36883204	     -6.76439509	     -6.61062632	      7.95058376	      3.57897372	     -5.25655252	     -0.40991341	      0.58767355
      1.43000000	      1.68392749	     -2.63229797	     -5.81015435	     -1.19150260	      0.93552936	      0.77187575	     -3.87252966	     -1.75358583	     -0.59712624	     -9.65976633	      3.92324471	      9.60847223	     -5.49634370	     -7.35033467	     -6.76435771	     -6.75302848	      8.02201896	      3.71411815	     -5.14985869	     -0.45979030	      0.61965743
      1.44000000	      1.51851431	     -2.54951879	     -5.90229417	     -1.19188916	      0.93513606	      0.77212130	     -3.16418955	     -1.81817948	     -0.57240603	    -10.60985541	      4.29901879	      9.50039343	     -5.21236020	     -7.31434382	     -6.77892850	     -6.93870031	      8.11653343	      3.88321574	     -5.04032604	     -0.54364878	      0.67114961
      1.45000000	      1.33020887	     -2.43810452	     -6.01968429	     -1.19233807	      0.93465612	      0.77247543	     -2.34846874	     -1.90417686	     -0.53004590	    -11.69884140	      4.71903366	      9.35244272	     -4.88471990	     -7.25946719	     -6.81526412	     -7.15948558	      8.23475467	      4.08428610	     -4.91299123	     -0.66515813	      0.73946839
      1.46000000	      1.15996751	     -2.29050381	     -6.16307466	     -1.19283837	      0.93413999	      0.77296644	     -1.49047072	     -2.01941959	     -0.45847442	    -12.88557889	      5.19746049	      9.17717116	     -4.55479246	     -7.17373660	     -6.86488534	     -7.42157951	      8.36496653	      4.30105463	     -4.81407199	     -0.84302661	      0.84040861
      1.47000000	      0.91359255	     -2.14059057	     -6.32246879	     -1.19332586	      0.93346894	      0.77359923	     -0.50421135	     -2.11471424	     -0.39519463	    -14.15334202	      5.61982760	      8.90166264	     -4.14774311	     -7.10642706	     -6.94017705	     -7.68284214	      8.53564460	      4.54529416	     -4.62086693	     -1.01635730	      0.91659140
      1.48000000	      0.71066368	     -1.95786085	     -6.49086140	     -1.19378452	      0.93280071	      0.77436135	      0.43472352	     -2.23476823	     -0.30095105	    -15.41307071	      6.07633241	      8.58999485	     -3.77798339	     -7.00819953	     -7.01924682	     -7.96623715	      8.70405388	      4.77992224	     -4.47429046	     -1.24268992	      1.00701505
      1.49000000	      0.52831682	     -1.76106437	     -6.65480800	     -1.19416841	      0.93211815	      0.77524049	      1.32175211	     -2.35635527	     -0.19317006	    -16.62268522	      6.52582482	      8.22853128	     -3.43257167	     -6.90092816	     -7.10395373	     -8.25250959	      8.87867600	      4.99851970	     -4.34097498	     -1.49285677	      1.08276254
      1.50000000	      0.39950073	     -1.55472674	     -6.81016623	     -1.19447036	      0.93148113	      0.77624791	      2.09157446	     -2.47827480	     -0.07096773	    -17.72804179	      6.98190061	      7.85633357	     -3.14784821	     -6.78481688	     -7.18279013	     -8.54192151	      9.04126627	      5.18612988	     -4.26095284	     -1.77165828	      1.14869797
      1.51000000	      0.26878867	     -1.36698268	     -6.94579907	     -1.19465326	      0.93082992	      0.77736626	      2.79290483	     -2.56616385	      0.03233978	    -18.72564925	      7.38376064	      7.42842802	     -2.88240710	     -6.69433398	     -7.26162070	     -8.80260218	      9.21266590	      5.34657840	     -4.16328492	     -2.03037590	      1.16974473
      1.52000000	      0.15641800	     -1.20759754	     -7.05802852	     -1.19469120	      0.93020743	      0.77859465	      3.38570534	     -2.61564885	      0.10874845	    -19.58893672	      7.73248260	      6.96709475	     -2.66393579	     -6.63642626	     -7.33581292	     -9.02837947	      9.39617488	      5.47285588	     -4.06856298	     -2.26070833	      1.15289659
      1.53000000	      0.11174718	     -1.06269135	     -7.14835274	     -1.19462689	      0.92969278	      0.77994562	      3.80738322	     -2.64453453	      0.20540071	    -20.29608723	      8.10101461	      6.57870588	     -2.52010978	     -6.59021822	     -7.39166843	     -9.26192859	      9.54471983	      5.56290631	     -4.04502041	     -2.49313538	      1.12485260
      1.54000000	      0.07764820	     -0.96189413	     -7.21394912	     -1.19441327	      0.92921596	      0.78141835	      4.12864680	     -2.61999865	      0.27293428	    -20.87791119	      8.42525729	      6.18732426	     -2.40943966	     -6.59549278	     -7.43644798	     -9.47485799	      9.71239617	      5.62494252	     -4.01601120	     -2.67779723	      1.06889679
      1.55000000	      0.06341154	     -0.90270559	     -7.25888662	     -1.19405254	      0.92879388	      0.78301992	      4.34519964	     -2.54490841	      0.32575611	    -21.34439395	      8.72527033	      5.81450092	     -2.33995957	     -6.64691392	     -7.46531097	     -9.67182620	      9.88671375	      5.66198517	     -3.99363569	     -2.82078015	      0.99988538
      1.56000000	      0.06572827	     -0.88336840	     -7.28751416	     -1.19357245	      0.92842273	      0.78475664	      4.46896153	     -2.42071146	      0.37631664	    -21.70408065	      9.01052925	      5.47965761	     -2.29684122	     -6.74554758	     -7.47726404	     -9.87323105	     10.06678900	      5.67960297	     -3.98040689	     -2.92499635	      0.93009177
      1.57000000	      0.07125686	     -0.90524483	     -7.30240798	     -1.19295956	      0.92808410	      0.78661967	      4.52543154	     -2.24518701	      0.42712071	    -21.97894983	      9.27885956	      5.18839776	     -2.26945065	     -6.89387015	     -7.47920942	    -10.07350910	     10.26120143	      5.68395633	     -3.95696989	     -2.98328702	      0.86060147
      1.58000000	      0.05590652	     -0.96452487	     -7.31138082	     -1.19224987	      0.92775231	      0.78861585	      4.55956177	     -2.01917175	      0.47877701	    -22.19485307	      9.50959762	      4.87225741	     -2.22338479	     -7.09217039	     -7.45147743	    -10.28816849	     10.42962823	      5.68039151	     -3.90048564	     -2.99891350	      0.83742655
      1.59000000	      0.04087332	     -1.04962251	     -7.31945780	     -1.19143390	      0.92744507	      0.79073187	      4.55252719	     -1.75977036	      0.54449740	    -22.35483301	      9.71775543	      4.65258250	     -2.17867115	     -7.32478319	     -7.42816672	    -10.52113056	     10.62525678	      5.67048057	     -3.83753865	     -2.98502095	      0.80822110
      1.60000000	      0.00103883	     -1.16910591	     -7.32746162	     -1.19053967	      0.92713127	      0.79296758	      4.53601992	     -1.45619280	      0.60880723	    -22.46447701	      9.88595883	      4.45435027	     -2.09257555	     -7.60642856	     -7.38222168	    -10.80265476	     10.81417155	      5.65304371	     -3.74423092	     -2.93104748	      0.83131194
      1.61000000	     -0.06255488	     -1.32072796	     -7.33721345	     -1.18958852	      0.92680490	      0.79532193	      4.52253201	     -1.11170974	      0.66977318	    -22.54464173	      9.99658402	      4.29869388	     -1.95877822	     -7.93546492	     -7.32517277	    -11.14275649	     11.00493821	      5.62702619	     -3.62827825	     -2.83913114	      0.87141863
      1.62000000	     -0.14274853	     -1.51030325	     -7.34320311	     -1.18858177	      0.92646203	      0.79777293	      4.49782120	     -0.72323930	      0.72315403	    -22.58480365	     10.05474614	      4.21374148	     -1.76509420	     -8.31811195	     -7.24622886	    -11.57923804	     11.21636769	      5.58682825	     -3.50086997	     -2.70088425	      0.93054296
      1.63000000	     -0.23598355	     -1.74390589	     -7.33598197	     -1.18755100	      0.92609346	      0.80032689	      4.45984402	     -0.28316584	      0.76199114	    -22.58557996	     10.06556471	      4.19385361	     -1.49846621	     -8.76372477	     -7.13548540	    -12.13617631	     11.44513296	      5.52760546	     -3.37584963	     -2.51715110	      1.00428545
      1.64000000	     -0.36901901	     -2.02195638	     -7.32258995	     -1.18657128	      0.92563489	      0.80297023	      4.46950393	      0.21311576	      0.79515791	    -22.59860682	      9.98485472	      4.22353647	     -1.10056999	     -9.27597366	     -6.96568165	    -12.86288346	     11.71595546	      5.44892464	     -3.23595299	     -2.27788329	      1.06995870
      1.65000000	     -0.49319200	     -2.35046784	     -7.28695285	     -1.18554318	      0.92514053	      0.80567459	      4.43370584	      0.76025623	      0.79235519	    -22.55965299	      9.90237180	      4.29663054	     -0.62568886	     -9.85130064	     -6.73523796	    -13.75734825	     12.01038823	      5.35198944	     -3.12231096	     -1.98473706	      1.14848953
      1.66000000	     -0.61752020	     -2.73244199	     -7.23543813	     -1.18457168	      0.92456782	      0.80846274	      4.38952142	      1.36643927	      0.75831417	    -22.50599195	      9.79728727	      4.38324637	     -0.04421013	    -10.49414192	     -6.41799047	    -14.84473444	     12.34161118	      5.24724779	     -3.04931270	     -1.63891214	      1.22556242
